<svg xmlns="http://www.w3.org/2000/svg" viewBox="0 0 24 24" role="img" aria-labelledby="title">
  <title id="title">Ambient Fire</title>
  <style>
  .paper-primary {
    fill: none;
    stroke: currentColor;
    stroke-width: 1.8;
    stroke-linecap: round;
    stroke-linejoin: round;
  }
  .paper-accent {
    fill: none;
    stroke: currentColor;
    stroke-width: 1.45;
    stroke-linecap: round;
    stroke-linejoin: round;
    opacity: .48;
  }
  .paper-fill {
    fill: currentColor;
    stroke: none;
  }
</style>
  <g class="paper-primary"><path d="M4 7h16v14H4zM2.5 4.5h19V8h-19M7 21v-3h10v3"/><path d="M12 9c1.1 2.7-2 3.5-1.2 6 .3.8.8 1.3 1.6 1.5-.2-1.3.6-2.1.8-3.3 1.8 1.5 2.8 3.1 2.4 5.1-.4 2-1.9 3.1-3.8 3.1S8.4 20.3 8 18.3c-.3-1.6.7-2.9 1.8-4.1-.1 1.4.4 2.4 1.1 2.8-.4-2.5 1.5-3.8 1.1-8z"/></g><g class="paper-accent"><path d="M12 17c1 .7.6 1.7 0 2.2-.6-.5-1-1.5 0-2.2z"/></g>
</svg>
