<svg xmlns="http://www.w3.org/2000/svg" viewBox="0 0 128 128" role="img" aria-labelledby="title">
  <title id="title">achievement · collector_5</title>
  <defs>
    <filter id="paper-shadow" x="-25%" y="-25%" width="150%" height="160%">
      <feDropShadow dx="0" dy="3" stdDeviation="2.2" flood-color="#080c18" flood-opacity=".28"/>
    </filter>
  </defs>
  <g filter="url(#paper-shadow)">
    <g transform="rotate(-3 64 64)"><path d="M64 10l12 8 15-1 6 14 13 7-3 15 8 12-9 12 2 15-14 6-7 14-15-2-12 8-12-9-15 1-6-14-13-7 3-15-8-12 9-12-2-15 14-6 7-14 15 2z" fill="#c9b185" stroke="#25243c" stroke-width="4"/><circle cx="64" cy="64" r="44" fill="#efe0c1" stroke="#e8a94b" stroke-width="4" stroke-dasharray="5 4"/></g>
    <g class="motif"><path d="M30 77h67v17H30z" fill="#c95f86" stroke="#25243c" stroke-width="4"/><path d="M35 57h60v19H35z" fill="#65a9c8" stroke="#25243c" stroke-width="4"/><path d="M28 37h62v20H28z" fill="#6e80c9" stroke="#25243c" stroke-width="4"/><path d="M43 37v20M77 57v19M47 77v17" stroke="#efe0c1" stroke-width="3"/></g>
  </g>
  <path d="M104 105c4-4 7-4 10 0-3 3-6 5-10 0z" fill="#e8a94b" opacity=".9"/>
</svg>
