<svg xmlns="http://www.w3.org/2000/svg" viewBox="0 0 128 128" role="img" aria-labelledby="title">
  <title id="title">achievement · legendary_drop</title>
  <defs>
    <filter id="paper-shadow" x="-25%" y="-25%" width="150%" height="160%">
      <feDropShadow dx="0" dy="3" stdDeviation="2.2" flood-color="#080c18" flood-opacity=".28"/>
    </filter>
  </defs>
  <g filter="url(#paper-shadow)">
    <g transform="rotate(-3 64 64)"><path d="M64 10l12 8 15-1 6 14 13 7-3 15 8 12-9 12 2 15-14 6-7 14-15-2-12 8-12-9-15 1-6-14-13-7 3-15-8-12 9-12-2-15 14-6 7-14 15 2z" fill="#c9b185" stroke="#25243c" stroke-width="4"/><circle cx="64" cy="64" r="44" fill="#efe0c1" stroke="#e8a94b" stroke-width="4" stroke-dasharray="5 4"/></g>
    <g class="motif"><path d="M29 56c0-17 12-28 35-28s35 11 35 28v10H29z" fill="#e8a94b" stroke="#25243c" stroke-width="5"/><path d="M25 60h78v37H25z" fill="#c95f86" stroke="#25243c" stroke-width="5" stroke-linejoin="round"/><path d="M58 57h13v25H58z" fill="#efe0c1"/><circle cx="64.5" cy="72" r="4" fill="#25243c"/></g>
  </g>
  <path d="M104 105c4-4 7-4 10 0-3 3-6 5-10 0z" fill="#e8a94b" opacity=".9"/>
</svg>
