<svg xmlns="http://www.w3.org/2000/svg" viewBox="0 0 128 128" role="img" aria-labelledby="title" data-icon-family="reward" data-icon-version="2">
  <title id="title">Reward: Книга</title>
  <defs>
    <filter id="lift" x="-25%" y="-25%" width="150%" height="165%">
      <feDropShadow dx="0" dy="4" stdDeviation="3" flood-color="#050814" flood-opacity=".34"/>
    </filter>
    <linearGradient id="paper" x1="0" y1="0" x2="1" y2="1">
      <stop stop-color="#f8f4e8"/><stop offset="1" stop-color="#d9c39d"/>
    </linearGradient>
    <linearGradient id="steel" x1="0" y1="0" x2="1" y2="1">
      <stop stop-color="#e8edf5"/><stop offset=".5" stop-color="#aebbd0"/><stop offset="1" stop-color="#6f819d"/>
    </linearGradient>
    <linearGradient id="gold" x1="0" y1="0" x2="1" y2="1">
      <stop stop-color="#ffd77d"/><stop offset=".5" stop-color="#dfa84b"/><stop offset="1" stop-color="#9b642c"/>
    </linearGradient>
  </defs>
  <g filter="url(#lift)" stroke="#20273a" stroke-width="5" stroke-linecap="round" stroke-linejoin="round"><path d="M16 27c18-8 34-7 48 5v77c-14-12-30-13-48-5zM112 27c-18-8-34-7-48 5v77c14-12 30-13 48-5z" fill="#f1e5cb"/><path d="M64 32v77" fill="none"/><path d="M28 48h23M28 62h23m26-14h23M77 62h23" stroke="#59b7c8" stroke-width="4"/></g>
</svg>
