<svg xmlns="http://www.w3.org/2000/svg" viewBox="0 0 128 128" role="img" aria-labelledby="title">
  <title id="title">pet · treat · apple</title>
  <defs>
    <filter id="paper-shadow" x="-25%" y="-25%" width="150%" height="160%">
      <feDropShadow dx="0" dy="3" stdDeviation="2.2" flood-color="#080c18" flood-opacity=".28"/>
    </filter>
  </defs>
  <g filter="url(#paper-shadow)">
    <path d="M20 82c12 29 76 29 88 0" fill="#cfb88c" stroke="#242a3c" stroke-width="5"/><ellipse cx="64" cy="81" rx="44" ry="15" fill="#f0dfbf"/>
    <g class="motif"><path d="M37 49h18V35h18v14h18v18h-9v27H46V85h-9z" fill="#cb655c" stroke="#242a3c" stroke-width="5" stroke-linejoin="round"/><path d="M64 35V24h17v11" fill="#5b9d74" stroke="#242a3c" stroke-width="4"/><path d="M48 58h13v13H48z" fill="#f0dfbf" opacity=".7"/><path d="M85 73h10M33 78H22M77 100v9" stroke="#6aabd1" stroke-width="4" stroke-linecap="round"/></g>
  </g>
  <path d="M104 105c4-4 7-4 10 0-3 3-6 5-10 0z" fill="#e7b04c" opacity=".9"/>
</svg>
