<svg xmlns="http://www.w3.org/2000/svg" viewBox="0 0 128 128" role="img" aria-labelledby="title">
  <title id="title">boss · tomorrow dragon</title>
  <defs>
    <filter id="paper-shadow" x="-25%" y="-25%" width="150%" height="160%">
      <feDropShadow dx="0" dy="3" stdDeviation="2.2" flood-color="#080c18" flood-opacity=".28"/>
    </filter>
  </defs>
  <g filter="url(#paper-shadow)">
    <path d="M64 8l13 9 16-2 7 15 15 7-3 16 8 13-10 13 1 16-16 5-8 15-15-4-14 8-12-10-16 1-5-16-14-8 5-15-7-14 11-12-1-16 16-4 9-14 15 4z" fill="#191728" stroke="#ca667d" stroke-width="5"/><circle cx="64" cy="64" r="47" fill="#bfa985" opacity=".9"/>
    <g class="motif"><path d="M31 87c4-32 19-49 44-48l-8-15 25 13-4 19c13 12 12 31-2 42-8-17-22-18-32-9z" fill="#ca667d" stroke="#29263a" stroke-width="5" stroke-linejoin="round"/><path d="M51 51l-23-13 12 29" fill="#64a9bd" stroke="#29263a" stroke-width="4"/><circle cx="79" cy="51" r="4" fill="#dc9e45"/></g>
  </g>
  <path d="M104 105c4-4 7-4 10 0-3 3-6 5-10 0z" fill="#dc9e45" opacity=".9"/>
</svg>
